<mxfile host="Electron" agent="Mozilla/5.0 (X11; Linux x86_64) AppleWebKit/537.36 (KHTML, like Gecko) draw.io/27.0.5 Chrome/134.0.6998.205 Electron/35.3.0 Safari/537.36" version="27.0.5" pages="2">
  <diagram name="config" id="ZvXNQg26AXPy_15aeXb5">
    <mxGraphModel dx="1426" dy="803" grid="1" gridSize="10" guides="1" tooltips="1" connect="1" arrows="1" fold="1" page="1" pageScale="1" pageWidth="827" pageHeight="1169" math="0" shadow="0">
      <root>
        <mxCell id="0" />
        <mxCell id="1" parent="0" />
        <mxCell id="JBnalLg52hrQvE5jIaXp-1" value="new&lt;div&gt;(empty)&lt;/div&gt;" style="rounded=1;whiteSpace=wrap;html=1;" vertex="1" parent="1">
          <mxGeometry x="90" y="60" width="120" height="60" as="geometry" />
        </mxCell>
        <mxCell id="JBnalLg52hrQvE5jIaXp-2" style="edgeStyle=orthogonalEdgeStyle;rounded=0;orthogonalLoop=1;jettySize=auto;html=1;entryX=0.5;entryY=0;entryDx=0;entryDy=0;" edge="1" parent="1" source="JBnalLg52hrQvE5jIaXp-3" target="JBnalLg52hrQvE5jIaXp-4">
          <mxGeometry relative="1" as="geometry" />
        </mxCell>
        <mxCell id="JBnalLg52hrQvE5jIaXp-3" value="ReadConfig" style="rounded=1;whiteSpace=wrap;html=1;" vertex="1" parent="1">
          <mxGeometry x="250" y="60" width="120" height="60" as="geometry" />
        </mxCell>
        <mxCell id="JBnalLg52hrQvE5jIaXp-4" value="readYML" style="rounded=1;whiteSpace=wrap;html=1;" vertex="1" parent="1">
          <mxGeometry x="250" y="170" width="120" height="60" as="geometry" />
        </mxCell>
        <mxCell id="JBnalLg52hrQvE5jIaXp-5" style="edgeStyle=orthogonalEdgeStyle;rounded=0;orthogonalLoop=1;jettySize=auto;html=1;" edge="1" parent="1" source="JBnalLg52hrQvE5jIaXp-6" target="JBnalLg52hrQvE5jIaXp-8">
          <mxGeometry relative="1" as="geometry" />
        </mxCell>
        <mxCell id="JBnalLg52hrQvE5jIaXp-6" value="Validate" style="rounded=1;whiteSpace=wrap;html=1;" vertex="1" parent="1">
          <mxGeometry x="414" y="60" width="120" height="60" as="geometry" />
        </mxCell>
        <mxCell id="JBnalLg52hrQvE5jIaXp-7" style="edgeStyle=orthogonalEdgeStyle;rounded=0;orthogonalLoop=1;jettySize=auto;html=1;" edge="1" parent="1" source="JBnalLg52hrQvE5jIaXp-8" target="JBnalLg52hrQvE5jIaXp-10">
          <mxGeometry relative="1" as="geometry" />
        </mxCell>
        <mxCell id="JBnalLg52hrQvE5jIaXp-8" value="validate required values&lt;br&gt;(with git-provider cases)" style="rounded=1;whiteSpace=wrap;html=1;" vertex="1" parent="1">
          <mxGeometry x="414" y="170" width="120" height="60" as="geometry" />
        </mxCell>
        <mxCell id="JBnalLg52hrQvE5jIaXp-9" style="edgeStyle=orthogonalEdgeStyle;rounded=0;orthogonalLoop=1;jettySize=auto;html=1;entryX=0.5;entryY=0;entryDx=0;entryDy=0;" edge="1" parent="1" source="JBnalLg52hrQvE5jIaXp-10" target="JBnalLg52hrQvE5jIaXp-11">
          <mxGeometry relative="1" as="geometry" />
        </mxCell>
        <mxCell id="JBnalLg52hrQvE5jIaXp-10" value="success" style="rhombus;whiteSpace=wrap;html=1;" vertex="1" parent="1">
          <mxGeometry x="434" y="270" width="80" height="80" as="geometry" />
        </mxCell>
        <mxCell id="JBnalLg52hrQvE5jIaXp-11" value="generate possible values" style="rounded=1;whiteSpace=wrap;html=1;" vertex="1" parent="1">
          <mxGeometry x="414" y="390" width="120" height="60" as="geometry" />
        </mxCell>
        <mxCell id="JBnalLg52hrQvE5jIaXp-12" value="yes" style="text;html=1;align=center;verticalAlign=middle;resizable=0;points=[];autosize=1;strokeColor=none;fillColor=none;" vertex="1" parent="1">
          <mxGeometry x="480" y="348" width="40" height="30" as="geometry" />
        </mxCell>
      </root>
    </mxGraphModel>
  </diagram>
  <diagram id="1KyT5Nvqu8-K1aTcOXnu" name="service">
    <mxGraphModel dx="1426" dy="803" grid="1" gridSize="10" guides="1" tooltips="1" connect="1" arrows="1" fold="1" page="1" pageScale="1" pageWidth="827" pageHeight="1169" math="0" shadow="0">
      <root>
        <mxCell id="0" />
        <mxCell id="1" parent="0" />
        <mxCell id="rozBYFYqCWglbYSsCx_b-8" style="edgeStyle=orthogonalEdgeStyle;rounded=0;orthogonalLoop=1;jettySize=auto;html=1;entryX=0;entryY=0.5;entryDx=0;entryDy=0;" edge="1" parent="1" source="rozBYFYqCWglbYSsCx_b-1" target="rozBYFYqCWglbYSsCx_b-6">
          <mxGeometry relative="1" as="geometry" />
        </mxCell>
        <mxCell id="rozBYFYqCWglbYSsCx_b-9" style="edgeStyle=orthogonalEdgeStyle;rounded=0;orthogonalLoop=1;jettySize=auto;html=1;entryX=0;entryY=0.5;entryDx=0;entryDy=0;" edge="1" parent="1" source="rozBYFYqCWglbYSsCx_b-1" target="rozBYFYqCWglbYSsCx_b-7">
          <mxGeometry relative="1" as="geometry" />
        </mxCell>
        <mxCell id="rozBYFYqCWglbYSsCx_b-1" value="Run" style="rounded=1;whiteSpace=wrap;html=1;" vertex="1" parent="1">
          <mxGeometry x="65" y="130" width="120" height="60" as="geometry" />
        </mxCell>
        <mxCell id="rozBYFYqCWglbYSsCx_b-3" value="" style="ellipse;html=1;shape=startState;fillColor=#000000;strokeColor=#ff0000;" vertex="1" parent="1">
          <mxGeometry x="110" y="40" width="30" height="30" as="geometry" />
        </mxCell>
        <mxCell id="rozBYFYqCWglbYSsCx_b-4" value="" style="edgeStyle=orthogonalEdgeStyle;html=1;verticalAlign=bottom;endArrow=open;endSize=8;strokeColor=#ff0000;rounded=0;" edge="1" source="rozBYFYqCWglbYSsCx_b-3" parent="1">
          <mxGeometry relative="1" as="geometry">
            <mxPoint x="125" y="130" as="targetPoint" />
          </mxGeometry>
        </mxCell>
        <mxCell id="rozBYFYqCWglbYSsCx_b-5" value="goboot" style="text;html=1;align=center;verticalAlign=middle;resizable=0;points=[];autosize=1;strokeColor=none;fillColor=none;" vertex="1" parent="1">
          <mxGeometry x="95" y="10" width="60" height="30" as="geometry" />
        </mxCell>
        <mxCell id="rozBYFYqCWglbYSsCx_b-11" style="edgeStyle=orthogonalEdgeStyle;rounded=0;orthogonalLoop=1;jettySize=auto;html=1;entryX=0;entryY=0.5;entryDx=0;entryDy=0;" edge="1" parent="1" source="rozBYFYqCWglbYSsCx_b-6" target="rozBYFYqCWglbYSsCx_b-10">
          <mxGeometry relative="1" as="geometry" />
        </mxCell>
        <mxCell id="rozBYFYqCWglbYSsCx_b-6" value="createRootDir" style="rounded=1;whiteSpace=wrap;html=1;" vertex="1" parent="1">
          <mxGeometry x="230" y="130" width="120" height="60" as="geometry" />
        </mxCell>
        <mxCell id="rozBYFYqCWglbYSsCx_b-7" value="createNewProject" style="rounded=1;whiteSpace=wrap;html=1;" vertex="1" parent="1">
          <mxGeometry x="230" y="260" width="120" height="60" as="geometry" />
        </mxCell>
        <mxCell id="rozBYFYqCWglbYSsCx_b-13" style="edgeStyle=orthogonalEdgeStyle;rounded=0;orthogonalLoop=1;jettySize=auto;html=1;" edge="1" parent="1" source="rozBYFYqCWglbYSsCx_b-10" target="rozBYFYqCWglbYSsCx_b-12">
          <mxGeometry relative="1" as="geometry" />
        </mxCell>
        <mxCell id="rozBYFYqCWglbYSsCx_b-10" value="wrong&amp;nbsp;&lt;div&gt;conf type&lt;/div&gt;" style="rhombus;whiteSpace=wrap;html=1;" vertex="1" parent="1">
          <mxGeometry x="390" y="120" width="80" height="80" as="geometry" />
        </mxCell>
        <mxCell id="rozBYFYqCWglbYSsCx_b-12" value="" style="ellipse;html=1;shape=endState;fillColor=#000000;strokeColor=#ff0000;" vertex="1" parent="1">
          <mxGeometry x="510" y="145" width="30" height="30" as="geometry" />
        </mxCell>
        <mxCell id="rozBYFYqCWglbYSsCx_b-14" value="fail" style="text;html=1;align=center;verticalAlign=middle;resizable=0;points=[];autosize=1;strokeColor=none;fillColor=none;" vertex="1" parent="1">
          <mxGeometry x="540" y="145" width="40" height="30" as="geometry" />
        </mxCell>
        <mxCell id="rozBYFYqCWglbYSsCx_b-15" value="yes" style="text;html=1;align=center;verticalAlign=middle;resizable=0;points=[];autosize=1;strokeColor=none;fillColor=none;" vertex="1" parent="1">
          <mxGeometry x="460" y="128" width="40" height="30" as="geometry" />
        </mxCell>
        <mxCell id="rozBYFYqCWglbYSsCx_b-20" style="edgeStyle=orthogonalEdgeStyle;rounded=0;orthogonalLoop=1;jettySize=auto;html=1;entryX=0;entryY=0.5;entryDx=0;entryDy=0;" edge="1" parent="1" source="rozBYFYqCWglbYSsCx_b-16" target="rozBYFYqCWglbYSsCx_b-17">
          <mxGeometry relative="1" as="geometry" />
        </mxCell>
        <mxCell id="rozBYFYqCWglbYSsCx_b-16" value="walkAndApply" style="rounded=1;whiteSpace=wrap;html=1;" vertex="1" parent="1">
          <mxGeometry x="380" y="260" width="120" height="60" as="geometry" />
        </mxCell>
        <mxCell id="rozBYFYqCWglbYSsCx_b-21" style="edgeStyle=orthogonalEdgeStyle;rounded=0;orthogonalLoop=1;jettySize=auto;html=1;entryX=0;entryY=0.5;entryDx=0;entryDy=0;" edge="1" parent="1" source="rozBYFYqCWglbYSsCx_b-17" target="rozBYFYqCWglbYSsCx_b-18">
          <mxGeometry relative="1" as="geometry" />
        </mxCell>
        <mxCell id="rozBYFYqCWglbYSsCx_b-22" style="edgeStyle=orthogonalEdgeStyle;rounded=0;orthogonalLoop=1;jettySize=auto;html=1;entryX=0.5;entryY=0;entryDx=0;entryDy=0;" edge="1" parent="1" source="rozBYFYqCWglbYSsCx_b-17" target="rozBYFYqCWglbYSsCx_b-19">
          <mxGeometry relative="1" as="geometry" />
        </mxCell>
        <mxCell id="rozBYFYqCWglbYSsCx_b-17" value="is const&lt;div&gt;root&lt;/div&gt;" style="rhombus;whiteSpace=wrap;html=1;" vertex="1" parent="1">
          <mxGeometry x="550" y="250" width="80" height="80" as="geometry" />
        </mxCell>
        <mxCell id="rozBYFYqCWglbYSsCx_b-27" style="edgeStyle=orthogonalEdgeStyle;rounded=0;orthogonalLoop=1;jettySize=auto;html=1;entryX=0.5;entryY=0;entryDx=0;entryDy=0;exitX=1;exitY=0.5;exitDx=0;exitDy=0;" edge="1" parent="1" source="rozBYFYqCWglbYSsCx_b-18" target="rozBYFYqCWglbYSsCx_b-25">
          <mxGeometry relative="1" as="geometry" />
        </mxCell>
        <mxCell id="rozBYFYqCWglbYSsCx_b-28" style="edgeStyle=orthogonalEdgeStyle;rounded=0;orthogonalLoop=1;jettySize=auto;html=1;" edge="1" parent="1" source="rozBYFYqCWglbYSsCx_b-18" target="rozBYFYqCWglbYSsCx_b-26">
          <mxGeometry relative="1" as="geometry" />
        </mxCell>
        <mxCell id="rozBYFYqCWglbYSsCx_b-18" value="renderPath&lt;div&gt;(copy template files to target)&lt;/div&gt;" style="rounded=1;whiteSpace=wrap;html=1;" vertex="1" parent="1">
          <mxGeometry x="670" y="260" width="120" height="60" as="geometry" />
        </mxCell>
        <mxCell id="rozBYFYqCWglbYSsCx_b-29" style="edgeStyle=orthogonalEdgeStyle;rounded=0;orthogonalLoop=1;jettySize=auto;html=1;entryX=0;entryY=0.5;entryDx=0;entryDy=0;" edge="1" parent="1" source="rozBYFYqCWglbYSsCx_b-19" target="rozBYFYqCWglbYSsCx_b-25">
          <mxGeometry relative="1" as="geometry" />
        </mxCell>
        <mxCell id="rozBYFYqCWglbYSsCx_b-19" value="renderContent&lt;div&gt;(replaces template contents)&lt;/div&gt;" style="rounded=1;whiteSpace=wrap;html=1;" vertex="1" parent="1">
          <mxGeometry x="530" y="370" width="120" height="60" as="geometry" />
        </mxCell>
        <mxCell id="rozBYFYqCWglbYSsCx_b-23" value="no" style="text;html=1;align=center;verticalAlign=middle;resizable=0;points=[];autosize=1;strokeColor=none;fillColor=none;" vertex="1" parent="1">
          <mxGeometry x="590" y="328" width="40" height="30" as="geometry" />
        </mxCell>
        <mxCell id="rozBYFYqCWglbYSsCx_b-24" value="yes" style="text;html=1;align=center;verticalAlign=middle;resizable=0;points=[];autosize=1;strokeColor=none;fillColor=none;" vertex="1" parent="1">
          <mxGeometry x="610" y="258" width="40" height="30" as="geometry" />
        </mxCell>
        <mxCell id="rozBYFYqCWglbYSsCx_b-25" value="excecuteTemplate&lt;div&gt;(text/template)&lt;/div&gt;" style="rounded=1;whiteSpace=wrap;html=1;" vertex="1" parent="1">
          <mxGeometry x="790" y="370" width="120" height="60" as="geometry" />
        </mxCell>
        <mxCell id="rozBYFYqCWglbYSsCx_b-26" value="utils.EnsureDir" style="rounded=1;whiteSpace=wrap;html=1;" vertex="1" parent="1">
          <mxGeometry x="900" y="260" width="120" height="60" as="geometry" />
        </mxCell>
      </root>
    </mxGraphModel>
  </diagram>
</mxfile>
